<svg id="Text" xmlns="http://www.w3.org/2000/svg" width="1000" height="1000" viewBox="0 0 1000 1000">
  <defs>
    <style>
      .cls-1 {
        fill: #53714e;
        fill-rule: evenodd;
      }

      .cls-2 {
        font-size: 62.5px;
        fill: #fefefe;
        font-family: Dosis;
        font-weight: 300;
      }

      .cls-3 {
        font-size: 33.333px;
        fill: #b7b7b7;
        text-anchor: middle;
        font-family: "Alexa Std";
      }
    </style>
  </defs>
  <path id="Form_1" data-name="Form 1" class="cls-1" d="M100.663,458.509a3.889,3.889,0,0,0-1.138-3.292c-1.494-1.5-1.921-2.5-1.067-4.222a14.838,14.838,0,0,0,.925-5.439,2.939,2.939,0,0,1,.356-1.431c0.142-.286-0.16-1.467.355-1.395s0.516,0.161.516,0.161a2.229,2.229,0,0,1-.036-0.555c0.018-.322.2-1.109,0.516-0.894a1.507,1.507,0,0,1,.516.984c0.124,0.447-.2.876,0.231,0.715a0.705,0.705,0,0,0,.569-0.787c0.036-.5-0.516-0.68-0.32-1.037a0.7,0.7,0,0,1,.605-0.448,0.9,0.9,0,0,0,.355-0.125,0.8,0.8,0,0,1,.907-0.716c0.729,0.2.409,0.483,0.338,0.966a5.453,5.453,0,0,0-.16,1.306,5.4,5.4,0,0,0-.053,1.593,2.5,2.5,0,0,0,.284.787c0.338,0.5-.231,1-0.124,1.753s0.337,4.866.3,5.331-0.071,4.008-.107,4.777a34.394,34.394,0,0,0,.445,4.759c0.195,0.858.427,1.52,0.569,2.29s2.489,8.8,2.507,9.929a3.063,3.063,0,0,0,.5,1.95,33.324,33.324,0,0,1,2.045,5.76c0.284,1.539,1.085,3.685,1.067,4.33s0.533,4.168.533,4.9,0.907,5.35,1.1,6.244a41.9,41.9,0,0,1,.942,5.671c-0.018,1.217-.089,1.682-0.053,1.861a3.863,3.863,0,0,0,.089.751,4.04,4.04,0,0,0,.925.7c0.248,0.2,3.254,2.9,4.125,3.685s4.481,5.421,4.961,6.047,3.379,4.276,3.628,4.508,2.916,4.849,3.218,5.278,1.6,2.773,2.116,3.453a14.5,14.5,0,0,0,3.379,3.452c1.636,1.074,2.045,1.4,2.116,1.432a74.353,74.353,0,0,1,5.3,5.492c0.96,1.324,2.027,2.9,2.507,3.685s4.713,7.12,5.175,7.443a5.673,5.673,0,0,1,1.067,1.341c0.213,0.287,2.472,2.183,2.312,3.614a1.791,1.791,0,0,1-1.334,1.718c-0.178.053-4.339,0.536-4.712,0.554s-1.281-.089-1.778-0.036-1.672.3-1.8,0.3-4.783.412-5.565,0.5a5.968,5.968,0,0,1-1.832-.179,0.711,0.711,0,0,1-.569-0.286,0.814,0.814,0,0,1,.338-0.7,1.592,1.592,0,0,1,.818.036,7.588,7.588,0,0,0,1.334.018,12.72,12.72,0,0,0,2.027-.429,14.366,14.366,0,0,0,1.333-.752,17.82,17.82,0,0,1,1.921-1.466,3.116,3.116,0,0,0,1.387-1.271,2.178,2.178,0,0,0-.16-2.433,40.952,40.952,0,0,0-6.668-6.547,38.663,38.663,0,0,1-5.335-5.242,14.841,14.841,0,0,0-2.774-2.648c-1.387-.912-1.583-1.288-2.045-1.574s-4.054-3.65-4.89-4.383a12.31,12.31,0,0,0-1.689-1.271c-0.16-.089-4.055-1.878-5.851-4.061s-1.831-2.325-2.365-2.415-0.836-.268-0.8-0.036,0.8,3.31.871,3.578,0.125,1.253.178,1.342a4.029,4.029,0,0,0-.071.769c0.107,0.054.889,1.986,0.96,2.094s-0.231.143-.373-0.179-0.427-.931-0.48-1.092-0.178-.322-0.178-0.178,0.249,1.019.249,1.127a2.426,2.426,0,0,1,.089.7c-0.071.09-.285,0.287-0.356-0.143a12.788,12.788,0,0,1-.142-1.395,4.629,4.629,0,0,0-.036-0.841,1.564,1.564,0,0,0-.195-0.662,15.339,15.339,0,0,1-.836-2.558,1.412,1.412,0,0,0-.285-0.841c-0.124-.107-0.053.715-0.409,0.7a0.706,0.706,0,0,1-.782-0.573c-0.125-.483-0.071-0.8-0.391-0.089s-1.263,2.808-1.476,3.274a9.481,9.481,0,0,1-2.863,3.739c-1.921,1.5-2.223,1.789-2.347,2.039s-0.6.322-.463,0.5,0.374,0.59.018,0.59-0.587.018-.551,0.394a1.974,1.974,0,0,1,.142.608c-0.071.2,0.48,5.153,0.445,5.3a0.2,0.2,0,0,1-.374-0.144c0.018-.339.036-0.733,0.036-1.037s-0.16-3.131-.445-3.077-1.956,1.342-2.2,1.413-0.089.608-.036,0.716-0.231.662-.3,0.411a1.562,1.562,0,0,1,.036-0.626,0.325,0.325,0,0,0-.427-0.376,29.172,29.172,0,0,1-3.752,1.271c-0.836.107-1.44,0.393-2.045,0.393s-2.97.179-3.219,0.179a0.542,0.542,0,0,0-.533.072c-0.16.179-.711,0.161-0.462,0.59a8.763,8.763,0,0,1,.854.966c0.071,0.322,1.263,1.181-.107,2.183,0,0-.16-0.018-0.284.536a2.3,2.3,0,0,1-.249.7,3.067,3.067,0,0,0-.089.644,0.642,0.642,0,0,0-.409.608,2.488,2.488,0,0,0,.409.483c0.071,0.2.711,0.734-.48,1.02s-1.494.483-1.636,0.787a8.288,8.288,0,0,0-.284.966,1.392,1.392,0,0,1-.516.716,10.467,10.467,0,0,0-1.636,1.932,6.948,6.948,0,0,0,.445,1.217,9.568,9.568,0,0,0,.462.948,1.572,1.572,0,0,1-.64.733c-0.391.161-1.263,0.09-1.138,0.412s-0.107.286-.053,0.393a2.96,2.96,0,0,1-1.049-.465c-0.249-.179-0.142-0.519-0.676-0.3s-0.729.2-.836-0.179a0.838,0.838,0,0,0-.889-0.447,1.19,1.19,0,0,1-.8-0.447c-0.391-.3.089,0.626-0.676,0.393s-0.48-.68-1.085-0.93-0.96.179-1.512-.2a1.172,1.172,0,0,0-1.049-.358,1.389,1.389,0,0,0-.729.233c-0.249.107-5.175,3.023-5.921,3.22a1.987,1.987,0,0,0-1.3.573,3.5,3.5,0,0,0-.551.769c-0.035.25,0.284,0.555-.818,0.411a3.036,3.036,0,0,0-1.672.054,10.708,10.708,0,0,0-2.685.948,2.065,2.065,0,0,1-1.049.752,4.78,4.78,0,0,1-1.938.2A10.093,10.093,0,0,0,58.7,560c-0.569-.018-5.73-0.325-6.107-0.325s0.176-.43.226-0.531a2.949,2.949,0,0,0-1.232-.2,9.689,9.689,0,0,1-1.207-.126A0.549,0.549,0,0,1,50,558.485a2.893,2.893,0,0,1,1.257-.152c0.8,0.051,1.484,0,1.861,0a15.3,15.3,0,0,0,2.062-.253c0.428-.1,1.157-0.354,1.484-0.43a6.687,6.687,0,0,1,.981-0.379c0.6-.127,1.157-0.4,1.685-0.456a5.722,5.722,0,0,1,1.785-.126,1.306,1.306,0,0,0,1.333-.177c0.528-.355,12.021-6.907,12.222-8.324s0.5-1.619.1-2.024,0,0,.4-1.215,0.4-2.327.905-2.833a4.126,4.126,0,0,1,1.811-1.518,24.5,24.5,0,0,0,3.219-1.923,10.209,10.209,0,0,1,1.71-.81,1.221,1.221,0,0,1-.7-1.315c0.1-1.012,1.509-2.733,2.213-4.048s0.3-1.114.7-2.126-0.3-1.922.905-2.732a22.163,22.163,0,0,0,2.716-1.721c0.6-.607,4.325-4.149,5.734-5.667a11.712,11.712,0,0,0,3.42-5.363c1.006-3.036,1.006-3.542,1.006-4.048a9.469,9.469,0,0,1,.8-4.656c1.006-1.923,2.515-3.542,2.918-4.453a31.231,31.231,0,0,0,1.207-7.792c0.1-3.137.4-7.185,0.5-9.007s-0.2-3.542-1.912-8-1.609-12.245-1.508-13.257,0.1-5.263-.161-5.176h0Z"/>
  <text id="Flowing_Life_Yoga" data-name="Flowing Life Yoga" class="cls-2" x="197.156" y="509.773">Flowing Life Yoga</text>
  <text id="by_Julian_Léon" data-name="by Julian Léon" class="cls-3" x="279.733" y="544.032"><tspan x="279.733">by Julian Léon</tspan></text>
</svg>
